solid STL file created by Vectorworks 2012 SP5 (Build 168051)
 facet normal -1.00000000000000 0.00000000000000 -0.00000000000000
  outer loop
   vertex -0.00000000000000 0.00000000000000 0.00000000000002
   vertex 0.00000000000001 70.71067811865474 -50.00000000000001
   vertex -0.00000000000002 -70.71067811865474 -50.00000000000001
  endloop
 endfacet
 facet normal 0.81649658092773 -0.00000000000000 -0.57735026918963
  outer loop
   vertex 0.00000000000001 -70.71067811865473 -49.99999999999999
   vertex 0.00000000000003 70.71067811865474 -49.99999999999999
   vertex 70.71067811865474 -0.00000000000001 49.99999999999997
  endloop
 endfacet
 facet normal -0.81649658092773 0.00000000000000 -0.57735026918963
  outer loop
   vertex -0.00000000000001 -70.71067811865474 -50.00000000000000
   vertex -70.71067811865474 0.00000000000001 49.99999999999997
   vertex 0.00000000000001 70.71067811865476 -50.00000000000001
  endloop
 endfacet
 facet normal -0.00000000000000 -0.81649658092773 -0.57735026918963
  outer loop
   vertex -70.71067811865470 0.00000000000000 50.00000000000000
   vertex 0.00000000000003 70.71067811865473 -49.99999999999999
   vertex 70.71067811865476 -0.00000000000000 49.99999999999999
  endloop
 endfacet
 facet normal -0.00000000000000 0.81649658092773 -0.57735026918963
  outer loop
   vertex -0.00000000000002 -70.71067811865478 -50.00000000000001
   vertex -70.71067811865473 -0.00000000000000 50.00000000000001
   vertex 70.71067811865476 -0.00000000000000 49.99999999999996
  endloop
 endfacet
 facet normal -0.50000000000000 0.50000000000000 0.70710678118655
  outer loop
   vertex 70.71067811865474 -0.00000000000000 49.99999999999994
   vertex 0.00000000000002 70.71067811865476 -49.99999999999999
   vertex -0.00000000000001 -0.00000000000000 -0.00000000000000
  endloop
 endfacet
 facet normal 0.00000000000000 1.00000000000000 -0.00000000000000
  outer loop
   vertex -70.71067811865473 0.00000000000001 50.00000000000000
   vertex 70.71067811865476 -0.00000000000000 49.99999999999997
   vertex -0.00000000000001 0.00000000000000 -0.00000000000000
  endloop
 endfacet
endsolid STL file created by Vectorworks 2012 SP5 (Build 168051)
