solid STL file created by Vectorworks 2012 SP5 (Build 168051)
 facet normal -0.70710678118655 -0.70710678118655 0.00000000000000
  outer loop
   vertex 49.99999999999999 -49.99999999999999 50.00000000000001
   vertex -50.00000000000001 50.00000000000001 49.99999999999999
   vertex 0.00000000000001 -0.00000000000001 0.00000000000000
  endloop
 endfacet
 facet normal -0.00000000000000 -0.70710678118655 0.70710678118655
  outer loop
   vertex -50.00000000000003 50.00000000000000 49.99999999999996
   vertex -50.00000000000000 -49.99999999999999 -49.99999999999999
   vertex 0.00000000000001 0.00000000000001 0.00000000000001
  endloop
 endfacet
 facet normal 0.70710678118655 -0.70710678118655 0.00000000000000
  outer loop
   vertex 0.00000000000000 -0.00000000000001 0.00000000000000
   vertex -50.00000000000000 -50.00000000000000 -50.00000000000001
   vertex 50.00000000000000 49.99999999999999 -50.00000000000001
  endloop
 endfacet
 facet normal -0.57735026918963 0.57735026918963 -0.57735026918963
  outer loop
   vertex 49.99999999999999 49.99999999999999 -50.00000000000001
   vertex -49.99999999999999 -49.99999999999999 -49.99999999999999
   vertex -50.00000000000000 49.99999999999999 49.99999999999999
  endloop
 endfacet
 facet normal -0.57735026918963 -0.57735026918963 0.57735026918963
  outer loop
   vertex -50.00000000000001 49.99999999999999 49.99999999999997
   vertex -50.00000000000000 -49.99999999999999 -49.99999999999999
   vertex 49.99999999999996 -49.99999999999996 49.99999999999999
  endloop
 endfacet
 facet normal 0.57735026918963 -0.57735026918963 -0.57735026918963
  outer loop
   vertex 49.99999999999999 49.99999999999999 -50.00000000000000
   vertex 49.99999999999994 -49.99999999999996 49.99999999999994
   vertex -50.00000000000000 -50.00000000000000 -50.00000000000001
  endloop
 endfacet
 facet normal 0.57735026918963 0.57735026918963 0.57735026918963
  outer loop
   vertex -50.00000000000001 49.99999999999999 49.99999999999997
   vertex 50.00000000000001 -49.99999999999999 50.00000000000000
   vertex 50.00000000000004 50.00000000000000 -50.00000000000001
  endloop
 endfacet
endsolid STL file created by Vectorworks 2012 SP5 (Build 168051)
